<?xml version="1.0" ?><svg baseProfile="basic" id="Layer_1" version="1.1" viewBox="0 0 80 160" xml:space="preserve" xmlns="http://www.w3.org/2000/svg" xmlns:xlink="http://www.w3.org/1999/xlink"><g><path d="M54.4,127.4c9.1,5.9,23.5,12.9,10.6,19.8c-13.7,7.3-31.9-1.3-38.7-9.2c-9.1-10.5-19.4-14-23.9-15.2   c-3.7-1-3.8-3.1,4.4-1.8c1.4,0.2,11.6,1.5,21.6,2.9C38.6,125.3,51.6,125.6,54.4,127.4z" opacity="0.2"/><path d="M46.3,127.9c0,0,0.8,2.9,2.8,4.1s6.1,3.4,6.5,4.3c0.4,0.9,1.4,3,3.5,2.6c2.1-0.4,4.8-2.2,4.1-3.5   c-0.7-1.3-1.7-0.9-3.8-1.4c-2.1-0.5-5.2-2.4-6-3.7c-0.9-1.3-1.7-4-1.7-4L46.3,127.9z" fill="#999999"/><path d="M46.3,127.9c0,0,0.8,2.9,2.8,4.1s6.1,3.4,6.5,4.3c0.4,0.9,1.4,3,3.5,2.6c2.1-0.4,4.8-2.2,4.1-3.5   c-0.7-1.3-1.7-0.9-3.8-1.4c-2.1-0.5-5.2-2.4-6-3.7c-0.9-1.3-1.7-4-1.7-4L46.3,127.9z" opacity="0.2"/><path d="M19.4,120.4c0,0-8.5-1.5-12-8.3c-3.4-6.8-2-12.3-2.9-13.9S1.4,97,0.9,98.8c-0.5,1.8-1.2,13.5,4.9,19.8   c6.3,6.3,13.8,7.8,13.8,7.8s1.8,6.3,5.5,8c3.7,1.7,5.1,0.5,5.1,0.5s-0.9,2-0.2,3.1c0.7,1,8.4,3.1,9.5,4c1.1,1,2.1,3.8,4.9,2.8   c2.8-1,3.7-2.1,3-3.4c-0.7-1.3-2.6-1.8-4-1.9s-6.5-2.5-6.5-2.5s2.2-2.1,2.7-3.7c0.5-1.6,0.3-2.7,0.3-2.7l6.9-2.6   c0,0,1.2,5.4,1.5,9.2s0.5,5.6,0.9,7.4c0.4,1.9,0.2,4.3,3.3,4s4.3-1.1,3.9-2.3c-0.4-1.2-2.4-2.4-2.8-4.6c-0.4-2.1,0.1-12.9,0.4-14   c0.2-1.1,2.5-7.1,2.5-7.1l2.5-0.5c0,0,1.1,7.8,1.5,11.3c0.4,3.5,0.7,9.2,0.7,10.4s0.7,2.6,2.2,2.7c1.5,0.2,4.6-0.8,4.5-2.1   c-0.1-1.3-2.3-3.1-2.5-4.6c-0.2-1.5-0.5-14.8,0.9-19.4s2.4-7.1,2.4-7.1l-8.7-19.8c0,0-3.5,0.8-7.9,0.7c-4.5-0.1-17.8-0.1-25.4,9.5   C18.9,111.4,19.4,120.4,19.4,120.4z" fill="#999999"/><path d="M56.3,120.7c0,0,2.5-2.1,2.7-4.9c0.2-2.8,1.8-5.1,3.2-6c1.4-1,6.2-3.4,6.2-3.4s1.3,4.3-0.5,7.3   c-1.8,3-4.8,5.4-7.3,6.2S56.3,120.7,56.3,120.7z" fill="#E5E5E5"/><path d="M46.8,128c0,0-0.7-3.1-1-5.4c-0.2-2.4-0.9-6-0.9-6s-0.9,2.1-2.8,3s-3.7,1.3-5.3,0.6   c-1.6-0.7-5.4-2.7-5.4-2.7s5.7,3.8,6.8,6.9c1.2,3.1,1.6,6.3,1.6,6.3L46.8,128z" opacity="0.2"/><path d="M58.2,96c0,0-0.5,2.8,0.7,5.7c1.3,2.9,4,5.2,5.4,6.9c1.3,1.6,2.8,3.2,5.8,2.9c3-0.4,3.2-1.9,4.1-3.1   c0.9-1.2,4.1-5.7,4.6-8.7c0.5-3.1,0.1-5.3,0.1-5.3s2.1-7.3,0.5-8.2c-1.6-0.9-3.2,2.7-5.1,2.9c-2,0.2-2.9-0.3-5.1-0.2   c-2.2,0.1-5.7,1-5.7,1s-3.3-3.4-5.3-2.7C55.8,88.1,58.2,96,58.2,96z" fill="#999999"/><path d="M69.7,110.5c-0.6,0-1.7-1-1.6-1.5c0.1-0.5,2.9-0.5,3.1,0.1C71.4,109.6,70.3,110.5,69.7,110.5z" fill="#2D3134"/><path d="M72,104.4c0,0,0.3-1.8,1.8-2.4c1.5-0.6,2.1-0.3,2.1-0.3s-0.3,1.7-1.5,2.3C73.3,104.6,72,104.4,72,104.4z" fill="#2D3134"/><path d="M67.3,104.4c0,0-0.6-1.8-2-2.3s-2.4,0-2.4,0s0.2,1.5,1.4,2S67.3,104.4,67.3,104.4z" fill="#2D3134"/><path d="M72.9,93.3c0,0,4.8-7.5,6.4-6.9c1.2,0.4-0.4,8-0.4,8s-1.3-1.2-3-1.5C74.3,92.6,72.9,93.3,72.9,93.3z" opacity="0.2"/><path d="M65.2,93.2c0,0-5.3-6.3-6.9-5.8c-2.2,0.7-0.1,8.6-0.1,8.6s1.6-2.1,2.9-2.6S65.2,93.2,65.2,93.2z" opacity="0.2"/></g></svg>